<?xml version="1.0" encoding="UTF-8"?>
<svg width="11px" height="11px" viewBox="0 0 11 11" version="1.1" xmlns="http://www.w3.org/2000/svg" xmlns:xlink="http://www.w3.org/1999/xlink">
    <title>路径</title>
    <g id="页面-1" stroke="none" stroke-width="1" fill="none" fill-rule="evenodd">
        <g id="接受赔率未选中备份" transform="translate(-345.000000, -344.000000)" fill="#000000">
            <g id="编组-2" transform="translate(0.000000, 324.000000)">
                <path d="M355.852203,20.8614241 C356.049266,21.0584867 356.049266,21.3779885 355.852203,21.5750511 L351.927254,25.5 L355.852203,29.4249489 C356.049266,29.6220115 356.049266,29.9415133 355.852203,30.1385759 L355.138576,30.852203 C354.941513,31.0492657 354.622012,31.0492657 354.424949,30.852203 L350.5,26.9272541 L346.575051,30.852203 C346.377988,31.0492657 346.058487,31.0492657 345.861424,30.852203 L345.147797,30.1385759 C344.950734,29.9415133 344.950734,29.6220115 345.147797,29.4249489 L349.072746,25.5 L345.147797,21.5750511 C344.950734,21.3779885 344.950734,21.0584867 345.147797,20.8614241 L345.861424,20.147797 C346.058487,19.9507343 346.377988,19.9507343 346.575051,20.147797 L350.5,24.0727459 L354.424949,20.147797 C354.622012,19.9507343 354.941513,19.9507343 355.138576,20.147797 L355.852203,20.8614241 Z" id="路径"></path>
            </g>
        </g>
    </g>
</svg>