<?xml version="1.0" encoding="UTF-8"?>
<svg width="14px" height="14px" viewBox="0 0 14 14" version="1.1" xmlns="http://www.w3.org/2000/svg" xmlns:xlink="http://www.w3.org/1999/xlink">
    <title>日期灰</title>
    <g id="页面-1" stroke="none" stroke-width="1" fill="none" fill-rule="evenodd">
        <g id="日期灰" transform="translate(0.000000, 0.000000)" fill="#FFB001" fill-rule="nonzero">
            <path d="M10.5011688,0.938991 C13.8492172,2.87198762 14.9963433,7.15312046 13.0633467,10.5011688 C11.13035,13.8492172 6.84921719,14.9963433 3.50116883,13.0633467 C0.153120463,11.13035 -0.994005624,6.84921719 0.938991,3.50116883 C2.87198762,0.153120463 7.15312046,-0.994005624 10.5011688,0.938991 Z M5.28571429,3.57142857 L4.14285714,3.57142857 C3.51428571,3.57142857 3,4.08571429 3,4.71428571 L3,9.28571429 C3,9.91428571 3.51428571,10.4285714 4.14285714,10.4285714 L9.85714286,10.4285714 C10.4857143,10.4285714 11,9.91428571 11,9.28571429 L11,4.71428571 C11,4.08571429 10.4857143,3.57142857 9.85714286,3.57142857 L8.71428571,3.57142857 L8.71428571,4.42857143 C8.71428571,4.58857143 8.58857143,4.71428571 8.42857143,4.71428571 C8.26857143,4.71428571 8.14285714,4.58857143 8.14285714,4.42857143 L8.14285714,3.57142857 L5.85714286,3.57142857 L5.85714286,4.42857143 C5.85714286,4.58857143 5.73142857,4.71428571 5.57142857,4.71428571 C5.41142857,4.71428571 5.28571429,4.58857143 5.28571429,4.42857143 L5.28571429,3.57142857 Z M5.57142857,8.14285714 C5.73142857,8.14285714 5.85714286,8.26857143 5.85714286,8.42857142 C5.85714286,8.58857143 5.73142857,8.71428571 5.57142857,8.71428571 L5,8.71428571 C4.84,8.71428571 4.71428571,8.58857143 4.71428571,8.42857142 C4.71428571,8.26857143 4.84,8.14285714 5,8.14285714 L5.57142857,8.14285714 Z M7.28571429,8.14285714 C7.44571429,8.14285714 7.57142857,8.26857143 7.57142857,8.42857142 C7.57142857,8.58857143 7.44571429,8.71428571 7.28571429,8.71428571 L6.71428571,8.71428571 C6.55428571,8.71428571 6.42857143,8.58857143 6.42857143,8.42857142 C6.42857143,8.26857143 6.55428571,8.14285714 6.71428571,8.14285714 L7.28571429,8.14285714 Z M9,8.14285714 C9.16,8.14285714 9.28571429,8.26857143 9.28571429,8.42857142 C9.28571429,8.58857143 9.16,8.71428571 9,8.71428571 L8.42857143,8.71428571 C8.26857143,8.71428571 8.14285714,8.58857143 8.14285714,8.42857142 C8.14285714,8.26857143 8.26857143,8.14285714 8.42857143,8.14285714 L9,8.14285714 Z M5.57142857,7 C5.73142857,7 5.85714286,7.12571429 5.85714286,7.28571428 C5.85714286,7.44571429 5.73142857,7.57142857 5.57142857,7.57142857 L5,7.57142857 C4.84,7.57142857 4.71428571,7.44571429 4.71428571,7.28571428 C4.71428571,7.12571429 4.84,7 5,7 L5.57142857,7 Z M7.28571429,7 C7.44571429,7 7.57142857,7.12571429 7.57142857,7.28571428 C7.57142857,7.44571429 7.44571429,7.57142857 7.28571429,7.57142857 L6.71428571,7.57142857 C6.55428571,7.57142857 6.42857143,7.44571429 6.42857143,7.28571428 C6.42857143,7.12571429 6.55428571,7 6.71428571,7 L7.28571429,7 Z M9,7 C9.16,7 9.28571429,7.12571429 9.28571429,7.28571428 C9.28571429,7.44571429 9.16,7.57142857 9,7.57142857 L8.42857143,7.57142857 C8.26857143,7.57142857 8.14285714,7.44571429 8.14285714,7.28571428 C8.14285714,7.12571429 8.26857143,7 8.42857143,7 L9,7 Z M10.1428571,5.28571429 C10.3028571,5.28571429 10.4285714,5.41142857 10.4285714,5.57142857 C10.4285714,5.73142857 10.3028571,5.85714286 10.1428571,5.85714286 L3.85714286,5.85714286 C3.69714286,5.85714286 3.57142857,5.73142857 3.57142857,5.57142857 C3.57142857,5.41142857 3.69714286,5.28571429 3.85714286,5.28571429 L10.1428571,5.28571429 Z M8.42857142,3 C8.26857143,3 8.14285714,3.12571429 8.14285714,3.28571428 L8.14285714,3.57142857 L8.71428571,3.57142857 L8.71428571,3.28571428 C8.71428571,3.12571429 8.58857143,3 8.42857142,3 Z M5.57142857,3 C5.41142857,3 5.28571429,3.12571429 5.28571429,3.28571428 L5.28571429,3.57142857 L5.85714286,3.57142857 L5.85714286,3.28571428 C5.85714286,3.12571429 5.73142857,3 5.57142857,3 Z" id="形状结合"></path>
        </g>
    </g>
</svg>