<?xml version="1.0" encoding="UTF-8"?>
<svg width="10px" height="12px" viewBox="0 0 10 12" version="1.1" xmlns="http://www.w3.org/2000/svg" xmlns:xlink="http://www.w3.org/1999/xlink">
    <!-- Generator: Sketch 58 (84663) - https://sketch.com -->
    <title>复制</title>
    <desc>Created with Sketch.</desc>
    <g id="页面-1" stroke="none" stroke-width="1" fill="none" fill-rule="evenodd">
        <g id="我的-投注记录-已结算" transform="translate(-148.000000, -641.000000)" fill-rule="nonzero">
            <g id="编组-6" transform="translate(0.000000, 44.000000)">
                <g id="编组-7" transform="translate(14.000000, 159.000000)">
                    <g id="编组-3" transform="translate(0.000000, 218.556951)">
                        <g id="复制" transform="translate(133.000000, 219.564126)">
                            <rect id="矩形" fill="#000000" opacity="0" x="0" y="0" width="12" height="12.0860987"></rect>
                            <path d="M7.128,4.0790583 L3.354,4.0790583 C3.156,4.0790583 2.994,4.24222063 2.994,4.44164126 C2.994,4.64106188 3.156,4.80422422 3.354,4.80422422 L7.128,4.80422422 C7.326,4.80422422 7.488,4.64106188 7.488,4.44164126 C7.488,4.24222063 7.326,4.0790583 7.128,4.0790583 L7.128,4.0790583 Z M5.916,6.38146009 L3.354,6.38146009 C3.156,6.38146009 2.994,6.54462242 2.994,6.74404305 C2.994,6.94346368 3.156,7.10662601 3.354,7.10662601 L5.916,7.10662601 C6.114,7.10662601 6.276,6.94346368 6.276,6.74404305 C6.276,6.54462242 6.114,6.38146009 5.916,6.38146009 Z" id="形状" fill="#A4A9B4"></path>
                            <path d="M9.132,9.30629596 L9.132,1.69205381 C9.132,1.09379193 8.646,0.604304933 8.052,0.604304933 L2.646,0.604304933 C2.052,0.604304933 1.566,1.09379193 1.566,1.69205381 L1.566,9.30629596 C1.566,9.90455785 2.052,10.3940448 2.646,10.3940448 L8.052,10.3940448 C8.646,10.3940448 9.132,9.90455785 9.132,9.30629596 Z M2.286,9.30629596 L2.286,1.69205381 C2.286,1.49263318 2.448,1.32947085 2.646,1.32947085 L8.052,1.32947085 C8.25,1.32947085 8.412,1.49263318 8.412,1.69205381 L8.412,9.30629596 C8.412,9.50571659 8.25,9.66887892 8.052,9.66887892 L2.646,9.66887892 C2.448,9.66887892 2.286,9.50571659 2.286,9.30629596 Z" id="形状" fill="#A4A9B4"></path>
                            <path d="M10.242,3.65000179 C10.044,3.65000179 9.882,3.81316413 9.882,4.01258475 L9.882,10.653896 C9.882,10.907704 9.678,11.1131677 9.426,11.1131677 L4.056,11.1131677 C3.858,11.1131677 3.696,11.27633 3.696,11.4757507 C3.696,11.6751713 3.858,11.8383336 4.056,11.8383336 L9.426,11.8383336 C10.074,11.8383336 10.602,11.3065453 10.602,10.653896 L10.602,4.01258475 C10.602,3.81316413 10.44,3.65000179 10.242,3.65000179 Z" id="路径" fill="#A4A9B4"></path>
                        </g>
                    </g>
                </g>
            </g>
        </g>
    </g>
</svg>