<!-- Generated by IcoMoon.io -->
<svg version="1.1" xmlns="http://www.w3.org/2000/svg" width="32" height="32" viewBox="0 0 32 32">
<title>2</title>
<path fill="#ffb001" d="M23.878 2.363c-7.533-4.349-17.166-1.768-21.515 5.765s-1.768 17.166 5.765 21.515c7.533 4.349 17.166 1.768 21.515-5.765s1.768-17.166-5.765-21.515zM22.541 10.031c1.076 0.621 1.445 1.997 0.824 3.074v0l-3.309 5.731c-0.248 0.429-0.615 0.745-1.035 0.932 0.050 0.455-0.040 0.932-0.288 1.361-0.621 1.076-1.997 1.445-3.074 0.824v0l-4.126-2.382c-1.076-0.621-1.445-1.997-0.824-3.074s1.997-1.445 3.074-0.824v0l2.207 1.277c0.045-0.124 0.101-0.246 0.169-0.364v0l3.309-5.731c0.621-1.076 1.997-1.445 3.074-0.824z"></path>
</svg>
